<svg version="1.1" id="Layer_1" xmlns="http://www.w3.org/2000/svg" xmlns:xlink="http://www.w3.org/1999/xlink" x="0px" y="0px" width="100%" viewBox="0 0 416 416" enable-background="new 0 0 416 416" xml:space="preserve">
	<path fill="#1F3C6F" opacity="1.000000" stroke="none" d="
M182.039963,59.001068 
	C184.835724,54.249111 187.383759,49.771027 190.113144,45.406357 
	C197.417679,33.725445 210.462860,33.086113 217.624146,44.689899 
	C229.491898,63.919807 240.887894,83.453537 251.999359,103.132156 
	C257.556946,112.974762 252.860489,120.177437 241.410706,120.226112 
	C216.749847,120.330948 192.088165,120.293579 167.426971,120.244049 
	C154.941315,120.218971 150.610779,112.823303 156.875366,101.887566 
	C165.053375,87.611710 173.527939,73.505730 182.039963,59.001068 
z" />
	<path fill="#88CEB4" opacity="1.000000" stroke="none" d="
M240.062302,239.856873 
	C227.701736,215.781586 238.976364,189.339584 264.744446,182.906448 
	C282.947876,178.361862 300.223724,186.237640 308.861816,203.583038 
	C316.827942,219.579102 312.022675,239.980179 298.306366,250.859772 
	C281.241455,264.395416 253.400665,261.924408 240.062302,239.856873 
z" />
	<path fill="#88CEB4" opacity="1.000000" stroke="none" d="
M90.328400,374.361145 
	C77.651199,384.985657 63.658276,387.198608 49.077057,380.756012 
	C34.303146,374.228302 26.659275,362.333435 25.916414,345.864807 
	C25.080988,327.344147 39.955444,306.942383 63.827797,306.345734 
	C83.047699,305.865356 99.243431,318.784882 102.895668,338.138031 
	C105.570061,352.309662 101.207924,364.352234 90.328400,374.361145 
z" />
	<path fill="#88CEB4" opacity="1.000000" stroke="none" d="
M224.204742,378.296448 
	C199.364288,392.014465 171.567001,379.789734 165.489426,352.804230 
	C160.817291,332.059204 176.472473,310.193176 197.371887,306.854828 
	C218.351273,303.503754 240.815353,317.977448 242.606125,343.028534 
	C243.670700,357.920959 236.890396,369.680389 224.204742,378.296448 
z" />
	<path fill="#88CEB4" opacity="1.000000" stroke="none" d="
M305.003235,349.702179 
	C303.018890,326.797760 317.754272,312.716431 331.508087,308.246887 
	C355.059784,300.593353 379.314026,316.445923 382.073608,341.103363 
	C384.594238,363.625336 368.040253,381.478363 348.672211,383.847961 
	C326.821411,386.521332 307.757812,371.563019 305.003235,349.702179 
z" />
	<path fill="#88CEB4" opacity="1.000000" stroke="none" d="
M170.999481,233.796051 
	C165.550903,246.773849 156.575577,255.492813 143.053238,258.334503 
	C118.222626,263.552582 98.255684,246.219238 95.879456,225.010468 
	C93.403328,202.910049 109.074471,185.315399 127.435524,182.181351 
	C148.441589,178.595825 168.033173,191.385681 172.184280,212.343033 
	C173.510208,219.037186 171.569672,226.378326 170.999481,233.796051 
z" />
</svg>
