<?xml version="1.0" encoding="UTF-8"?>
<svg xmlns="http://www.w3.org/2000/svg" xmlns:xlink="http://www.w3.org/1999/xlink" width="164px" height="37px" viewBox="0 0 164 37" version="1.1">
	<g id="surface1">
		<path style=" stroke:none;fill-rule:nonzero;fill:rgb(4.77%,39.91%,55.31%);fill-opacity:1;" d="M 87.546875 15.75 C 87.539062 15.601562 87.601562 15.570312 87.714844 15.570312 C 88.367188 15.574219 89.023438 15.574219 89.703125 15.574219 C 91.09375 19.371094 92.484375 23.164062 93.902344 27.035156 C 94.402344 25.714844 94.839844 24.445312 95.296875 23.179688 C 95.753906 21.917969 96.203125 20.65625 96.65625 19.394531 C 97.113281 18.121094 97.574219 16.851562 98.03125 15.585938 C 98.753906 15.585938 99.457031 15.585938 100.1875 15.585938 C 100.441406 20.464844 100.699219 25.332031 100.957031 30.222656 C 100.304688 30.222656 99.675781 30.222656 99.019531 30.222656 C 98.851562 26.367188 98.6875 22.515625 98.519531 18.664062 C 98.007812 19.917969 97.585938 21.199219 97.140625 22.472656 C 96.6875 23.769531 96.246094 25.066406 95.800781 26.363281 C 95.355469 27.648438 94.914062 28.9375 94.46875 30.230469 C 94.082031 30.230469 93.714844 30.230469 93.324219 30.230469 C 91.929688 26.394531 90.535156 22.558594 89.140625 18.726562 C 89.121094 18.726562 89.101562 18.730469 89.082031 18.730469 C 88.941406 22.554688 88.800781 26.378906 88.65625 30.222656 C 88.054688 30.222656 87.464844 30.222656 86.832031 30.222656 C 86.945312 27.820312 87.066406 25.414062 87.1875 23.011719 C 87.308594 20.597656 87.425781 18.1875 87.546875 15.75 Z M 87.546875 15.75 " />
		<path style=" stroke:none;fill-rule:nonzero;fill:rgb(4.77%,39.91%,55.31%);fill-opacity:1;" d="M 71.226562 20.226562 C 71.285156 20.316406 71.332031 20.390625 71.421875 20.527344 C 71.421875 18.777344 71.421875 17.101562 71.421875 15.378906 C 72.074219 15.324219 72.699219 15.273438 73.34375 15.21875 C 73.34375 20.230469 73.34375 25.222656 73.34375 30.226562 C 72.757812 30.226562 72.1875 30.226562 71.597656 30.226562 C 71.539062 29.824219 71.484375 29.429688 71.417969 28.988281 C 71.367188 29.039062 71.339844 29.0625 71.324219 29.089844 C 71.011719 29.667969 70.511719 30.015625 69.894531 30.175781 C 69.480469 30.28125 69.046875 30.339844 68.617188 30.371094 C 68.011719 30.414062 67.40625 30.386719 66.8125 30.242188 C 66.289062 30.121094 65.839844 29.855469 65.453125 29.492188 C 65.296875 29.34375 65.179688 29.140625 65.082031 28.945312 C 64.820312 28.394531 64.660156 27.8125 64.621094 27.203125 C 64.515625 25.679688 64.503906 24.15625 64.621094 22.632812 C 64.660156 22.121094 64.746094 21.613281 64.902344 21.121094 C 65.214844 20.125 65.910156 19.554688 66.898438 19.347656 C 67.863281 19.140625 68.84375 19.136719 69.8125 19.332031 C 70.386719 19.449219 70.875 19.710938 71.226562 20.226562 M 70.839844 28.765625 C 71.175781 28.582031 71.351562 28.292969 71.402344 27.917969 C 71.417969 27.800781 71.433594 27.679688 71.433594 27.558594 C 71.4375 25.75 71.4375 23.945312 71.433594 22.136719 C 71.433594 21.984375 71.417969 21.832031 71.398438 21.683594 C 71.328125 21.179688 71.046875 20.847656 70.554688 20.730469 C 70.242188 20.65625 69.921875 20.605469 69.601562 20.578125 C 68.875 20.515625 68.152344 20.542969 67.433594 20.667969 C 67.054688 20.734375 66.816406 20.949219 66.699219 21.304688 C 66.660156 21.421875 66.617188 21.539062 66.605469 21.65625 C 66.558594 22.167969 66.484375 22.679688 66.484375 23.191406 C 66.484375 24.738281 66.515625 26.28125 66.535156 27.828125 C 66.546875 28.515625 66.800781 28.816406 67.476562 28.953125 C 67.523438 28.960938 67.574219 28.96875 67.625 28.972656 C 68.328125 28.988281 69.035156 29.03125 69.738281 29.007812 C 70.09375 28.996094 70.445312 28.863281 70.839844 28.765625 Z M 70.839844 28.765625 " />
		<path style=" stroke:none;fill-rule:nonzero;fill:rgb(4.77%,39.91%,55.31%);fill-opacity:1;" d="M 42.21875 23.75 C 42.25 24.957031 42.28125 26.140625 42.316406 27.320312 C 42.320312 27.46875 42.347656 27.621094 42.378906 27.769531 C 42.46875 28.175781 42.71875 28.445312 43.101562 28.601562 C 43.515625 28.769531 43.949219 28.859375 44.390625 28.902344 C 45.347656 28.992188 46.304688 29 47.261719 28.914062 C 47.714844 28.871094 48.121094 28.707031 48.503906 28.46875 C 48.679688 28.363281 48.785156 28.203125 48.828125 28.011719 C 48.914062 27.660156 48.996094 27.304688 49.042969 26.949219 C 49.09375 26.558594 49.101562 26.164062 49.132812 25.738281 C 49.707031 25.78125 50.25 25.894531 50.832031 25.976562 C 50.820312 26.167969 50.816406 26.347656 50.800781 26.523438 C 50.746094 27.179688 50.65625 27.824219 50.445312 28.453125 C 50.128906 29.40625 49.484375 29.988281 48.523438 30.246094 C 48.003906 30.386719 47.472656 30.441406 46.9375 30.460938 C 45.949219 30.5 44.957031 30.523438 43.980469 30.355469 C 43.378906 30.253906 42.792969 30.054688 42.199219 29.890625 C 42.097656 29.859375 41.992188 29.804688 41.90625 29.738281 C 41.328125 29.28125 40.835938 28.769531 40.632812 28.023438 C 40.402344 27.179688 40.289062 26.320312 40.28125 25.449219 C 40.261719 23.714844 40.257812 21.976562 40.28125 20.238281 C 40.292969 19.375 40.382812 18.511719 40.621094 17.667969 C 40.808594 17.007812 41.191406 16.511719 41.730469 16.128906 C 41.921875 15.992188 42.152344 15.890625 42.382812 15.824219 C 43.199219 15.585938 44.03125 15.441406 44.886719 15.453125 C 45.800781 15.464844 46.722656 15.46875 47.636719 15.527344 C 48.03125 15.550781 48.425781 15.675781 48.808594 15.796875 C 49.445312 15.996094 49.890625 16.4375 50.207031 17.019531 C 50.511719 17.578125 50.648438 18.1875 50.734375 18.808594 C 50.773438 19.085938 50.796875 19.367188 50.832031 19.6875 C 50.257812 19.800781 49.703125 19.910156 49.128906 20.023438 C 49.082031 19.648438 49.046875 19.308594 48.992188 18.972656 C 48.9375 18.644531 48.882812 18.316406 48.789062 17.996094 C 48.636719 17.472656 48.292969 17.121094 47.738281 17.035156 C 47.378906 16.980469 47.015625 16.9375 46.652344 16.9375 C 45.878906 16.933594 45.101562 16.949219 44.324219 16.976562 C 44.035156 16.984375 43.742188 17.042969 43.457031 17.09375 C 43.339844 17.113281 43.226562 17.164062 43.113281 17.210938 C 42.609375 17.429688 42.347656 17.816406 42.324219 18.363281 C 42.304688 18.828125 42.28125 19.289062 42.273438 19.753906 C 42.25 21.078125 42.238281 22.402344 42.21875 23.75 Z M 42.21875 23.75 " />
		<path style=" stroke:none;fill-rule:nonzero;fill:rgb(4.77%,39.91%,55.31%);fill-opacity:1;" d="M 138.265625 25.9375 C 138.273438 24.726562 138.289062 23.546875 138.292969 22.367188 C 138.292969 22.085938 138.273438 21.800781 138.25 21.519531 C 138.214844 21.164062 138.003906 20.929688 137.691406 20.785156 C 137.550781 20.71875 137.390625 20.664062 137.234375 20.640625 C 136.390625 20.523438 135.546875 20.484375 134.707031 20.671875 C 134.484375 20.722656 134.269531 20.820312 134.066406 20.929688 C 133.832031 21.058594 133.710938 21.277344 133.703125 21.550781 C 133.660156 22.621094 133.59375 23.691406 133.578125 24.757812 C 133.558594 26.464844 133.574219 28.171875 133.574219 29.878906 C 133.574219 29.988281 133.574219 30.097656 133.574219 30.222656 C 132.929688 30.222656 132.308594 30.222656 131.683594 30.222656 C 131.625 30.027344 131.609375 16.074219 131.671875 15.695312 C 132.289062 15.648438 132.910156 15.597656 133.5625 15.542969 C 133.5625 17.109375 133.5625 18.65625 133.5625 20.207031 C 133.613281 20.203125 133.636719 20.207031 133.644531 20.199219 C 134.097656 19.636719 134.71875 19.390625 135.402344 19.285156 C 136.421875 19.125 137.433594 19.191406 138.429688 19.453125 C 139.414062 19.707031 140 20.382812 140.113281 21.394531 C 140.167969 21.894531 140.199219 22.402344 140.199219 22.90625 C 140.203125 25.238281 140.191406 27.570312 140.1875 29.902344 C 140.1875 30.003906 140.1875 30.101562 140.1875 30.222656 C 139.550781 30.222656 138.929688 30.222656 138.265625 30.222656 C 138.265625 28.808594 138.265625 27.390625 138.265625 25.9375 Z M 138.265625 25.9375 " />
		<path style=" stroke:none;fill-rule:nonzero;fill:rgb(4.77%,39.91%,55.31%);fill-opacity:1;" d="M 58.007812 19.207031 C 58.722656 19.210938 59.402344 19.265625 60.074219 19.429688 C 61.09375 19.679688 61.652344 20.347656 61.878906 21.332031 C 62.035156 21.996094 62.101562 22.667969 62.113281 23.34375 C 62.128906 24.375 62.125 25.40625 62.113281 26.433594 C 62.101562 27.050781 62.011719 27.660156 61.898438 28.265625 C 61.730469 29.171875 61.175781 29.726562 60.359375 30.066406 C 59.886719 30.261719 59.386719 30.328125 58.882812 30.351562 C 57.867188 30.402344 56.847656 30.414062 55.832031 30.304688 C 55.269531 30.242188 54.753906 30.066406 54.28125 29.75 C 53.832031 29.449219 53.539062 29.054688 53.398438 28.53125 C 53.226562 27.882812 53.125 27.222656 53.121094 26.554688 C 53.117188 25.234375 53.125 23.910156 53.171875 22.589844 C 53.1875 22.101562 53.285156 21.605469 53.410156 21.132812 C 53.628906 20.277344 54.164062 19.703125 55.035156 19.464844 C 55.582031 19.3125 56.140625 19.234375 56.707031 19.21875 C 57.128906 19.207031 57.554688 19.210938 58.007812 19.207031 M 55.445312 28.726562 C 55.613281 28.789062 55.777344 28.871094 55.953125 28.90625 C 56.71875 29.070312 57.5 29.054688 58.273438 29.011719 C 58.675781 28.988281 59.078125 28.933594 59.46875 28.847656 C 59.980469 28.734375 60.085938 28.453125 60.101562 28.117188 C 60.125 27.601562 60.179688 27.089844 60.175781 26.574219 C 60.167969 24.890625 60.136719 23.203125 60.109375 21.519531 C 60.101562 21.105469 59.910156 20.855469 59.484375 20.734375 C 59.253906 20.664062 59.011719 20.613281 58.773438 20.601562 C 58.140625 20.574219 57.503906 20.554688 56.871094 20.570312 C 56.511719 20.582031 56.144531 20.640625 55.796875 20.722656 C 55.308594 20.835938 55.125 21.097656 55.113281 21.585938 C 55.109375 21.847656 55.105469 22.109375 55.101562 22.375 C 55.082031 23.796875 55.054688 25.21875 55.050781 26.640625 C 55.050781 27.144531 55.101562 27.648438 55.128906 28.152344 C 55.144531 28.375 55.222656 28.566406 55.445312 28.726562 Z M 55.445312 28.726562 " />
		<path style=" stroke:none;fill-rule:nonzero;fill:rgb(4.77%,39.91%,55.31%);fill-opacity:1;" d="M 79.210938 19.226562 C 80.128906 19.242188 81.015625 19.242188 81.902344 19.277344 C 82.347656 19.296875 82.773438 19.4375 83.183594 19.613281 C 83.527344 19.765625 83.789062 20 83.992188 20.316406 C 84.324219 20.820312 84.464844 21.390625 84.507812 21.976562 C 84.574219 22.851562 84.59375 23.730469 84.628906 24.605469 C 84.628906 24.632812 84.617188 24.664062 84.601562 24.734375 C 84.070312 24.773438 83.53125 24.84375 82.992188 24.851562 C 81.394531 24.867188 79.800781 24.855469 78.207031 24.855469 C 78.097656 24.855469 77.988281 24.855469 77.867188 24.855469 C 77.859375 24.9375 77.847656 24.996094 77.847656 25.054688 C 77.871094 26.023438 77.890625 26.992188 77.925781 27.960938 C 77.941406 28.492188 78.207031 28.792969 78.730469 28.910156 C 78.917969 28.953125 79.109375 28.984375 79.296875 28.996094 C 80.074219 29.054688 80.851562 29.082031 81.625 28.972656 C 81.722656 28.960938 81.824219 28.941406 81.917969 28.90625 C 82.546875 28.667969 82.699219 28.5625 82.78125 27.855469 C 82.8125 27.574219 82.832031 27.292969 82.863281 26.976562 C 83.359375 27.066406 83.839844 27.152344 84.335938 27.238281 C 84.339844 27.328125 84.359375 27.40625 84.347656 27.480469 C 84.292969 27.921875 84.265625 28.367188 84.164062 28.796875 C 83.988281 29.535156 83.523438 30.015625 82.769531 30.191406 C 82.53125 30.246094 82.296875 30.308594 82.058594 30.324219 C 80.683594 30.429688 79.316406 30.433594 77.96875 30.074219 C 76.914062 29.792969 76.339844 29.066406 76.125 28.046875 C 76.003906 27.480469 75.960938 26.886719 75.945312 26.304688 C 75.917969 25.285156 75.929688 24.265625 75.941406 23.246094 C 75.953125 22.597656 76.046875 21.960938 76.160156 21.320312 C 76.347656 20.265625 77.015625 19.683594 77.988281 19.40625 C 78.375 19.296875 78.785156 19.285156 79.210938 19.226562 M 78 21.511719 C 77.839844 22.265625 77.863281 23.03125 77.859375 23.8125 C 79.480469 23.8125 81.074219 23.8125 82.664062 23.8125 C 82.679688 23.777344 82.695312 23.761719 82.695312 23.742188 C 82.660156 22.96875 82.636719 22.191406 82.582031 21.414062 C 82.558594 21.078125 82.359375 20.832031 82.027344 20.726562 C 81.847656 20.667969 81.65625 20.617188 81.46875 20.605469 C 80.886719 20.578125 80.300781 20.558594 79.71875 20.554688 C 79.457031 20.550781 79.195312 20.585938 78.933594 20.613281 C 78.480469 20.664062 78.15625 20.875 78.050781 21.347656 C 78.042969 21.386719 78.027344 21.425781 78 21.511719 Z M 78 21.511719 " />
		<path style=" stroke:none;fill-rule:nonzero;fill:rgb(4.77%,39.91%,55.31%);fill-opacity:1;" d="M 108.003906 30.230469 C 107.050781 30.417969 106.117188 30.4375 105.179688 30.304688 C 104.097656 30.148438 103.449219 29.558594 103.203125 28.496094 C 103.054688 27.851562 103.015625 27.195312 103.066406 26.539062 C 103.125 25.855469 103.488281 25.351562 104.097656 25.035156 C 104.597656 24.78125 105.128906 24.636719 105.679688 24.542969 C 106.828125 24.355469 107.988281 24.347656 109.148438 24.328125 C 109.261719 24.328125 109.371094 24.328125 109.496094 24.328125 C 109.507812 24.246094 109.527344 24.179688 109.527344 24.113281 C 109.527344 23.246094 109.53125 22.375 109.527344 21.507812 C 109.523438 21.039062 109.339844 20.792969 108.886719 20.679688 C 108.644531 20.621094 108.390625 20.570312 108.140625 20.570312 C 107.433594 20.566406 106.730469 20.582031 106.023438 20.601562 C 105.820312 20.605469 105.632812 20.6875 105.472656 20.824219 C 105.332031 20.945312 105.230469 21.089844 105.21875 21.285156 C 105.203125 21.570312 105.179688 21.851562 105.160156 22.171875 C 104.675781 22.183594 104.1875 22.117188 103.683594 22.121094 C 103.617188 21.421875 103.664062 20.769531 104.042969 20.179688 C 104.253906 19.851562 104.554688 19.644531 104.914062 19.511719 C 105.402344 19.332031 105.910156 19.234375 106.425781 19.230469 C 107.210938 19.21875 108 19.246094 108.785156 19.277344 C 109.042969 19.289062 109.304688 19.351562 109.554688 19.425781 C 110.503906 19.699219 111.085938 20.34375 111.277344 21.304688 C 111.382812 21.824219 111.441406 22.363281 111.445312 22.894531 C 111.464844 25.289062 111.457031 27.683594 111.457031 30.078125 C 111.457031 30.117188 111.449219 30.15625 111.445312 30.210938 C 111.199219 30.273438 110.945312 30.234375 110.699219 30.242188 C 110.449219 30.25 110.199219 30.242188 109.929688 30.242188 C 109.828125 29.765625 109.734375 29.308594 109.636719 28.851562 C 109.445312 29.179688 109.277344 29.507812 109 29.761719 C 108.722656 30.015625 108.382812 30.132812 108.003906 30.230469 M 105.003906 28.546875 C 105.113281 28.828125 105.363281 28.917969 105.625 28.964844 C 106.222656 29.078125 106.828125 29.0625 107.429688 28.996094 C 107.863281 28.945312 108.277344 28.832031 108.667969 28.625 C 109.117188 28.386719 109.378906 28.011719 109.472656 27.519531 C 109.507812 27.332031 109.523438 27.140625 109.527344 26.949219 C 109.535156 26.476562 109.527344 26.003906 109.527344 25.527344 C 109.464844 25.515625 109.425781 25.503906 109.390625 25.503906 C 108.421875 25.5 107.453125 25.507812 106.496094 25.652344 C 106.128906 25.707031 105.765625 25.808594 105.414062 25.925781 C 105.054688 26.042969 104.847656 26.324219 104.835938 26.699219 C 104.820312 27.304688 104.828125 27.910156 105.003906 28.546875 Z M 105.003906 28.546875 " />
		<path style=" stroke:none;fill-rule:nonzero;fill:rgb(4.77%,39.91%,55.31%);fill-opacity:1;" d="M 145.316406 30.367188 C 145.078125 30.339844 144.867188 30.324219 144.660156 30.285156 C 143.597656 30.070312 142.960938 29.441406 142.789062 28.367188 C 142.699219 27.804688 142.660156 27.222656 142.671875 26.652344 C 142.683594 25.914062 143.058594 25.371094 143.714844 25.03125 C 144.203125 24.78125 144.726562 24.636719 145.265625 24.546875 C 146.425781 24.355469 147.597656 24.347656 148.765625 24.328125 C 148.875 24.328125 148.984375 24.328125 149.113281 24.328125 C 149.121094 24.226562 149.132812 24.148438 149.132812 24.074219 C 149.132812 23.222656 149.132812 22.375 149.132812 21.527344 C 149.132812 21.027344 148.945312 20.785156 148.453125 20.671875 C 148.230469 20.621094 147.996094 20.574219 147.769531 20.570312 C 147.050781 20.570312 146.335938 20.585938 145.621094 20.601562 C 145.40625 20.609375 145.210938 20.699219 145.050781 20.851562 C 144.921875 20.972656 144.832031 21.113281 144.824219 21.296875 C 144.8125 21.578125 144.789062 21.859375 144.765625 22.175781 C 144.28125 22.15625 143.800781 22.136719 143.304688 22.117188 C 143.289062 22.042969 143.269531 21.980469 143.269531 21.914062 C 143.253906 21.539062 143.269531 21.167969 143.371094 20.800781 C 143.5625 20.113281 143.980469 19.640625 144.675781 19.464844 C 145.125 19.351562 145.585938 19.25 146.042969 19.234375 C 146.820312 19.207031 147.597656 19.242188 148.371094 19.277344 C 148.632812 19.285156 148.894531 19.34375 149.144531 19.417969 C 150.089844 19.691406 150.6875 20.324219 150.878906 21.285156 C 150.988281 21.816406 151.050781 22.363281 151.054688 22.90625 C 151.074219 25.28125 151.0625 27.652344 151.0625 30.027344 C 151.0625 30.085938 151.058594 30.144531 151.054688 30.222656 C 150.542969 30.222656 150.046875 30.222656 149.53125 30.222656 C 149.433594 29.753906 149.339844 29.292969 149.230469 28.773438 C 149.171875 28.890625 149.132812 28.964844 149.101562 29.046875 C 148.855469 29.636719 148.425781 30.011719 147.808594 30.179688 C 147.109375 30.371094 146.394531 30.390625 145.675781 30.382812 C 145.566406 30.378906 145.457031 30.371094 145.316406 30.367188 M 147.710938 28.855469 C 148.765625 28.511719 149.132812 28.007812 149.132812 26.898438 C 149.132812 26.515625 149.132812 26.132812 149.132812 25.746094 C 149.132812 25.671875 149.121094 25.59375 149.113281 25.515625 C 149.054688 25.507812 149.011719 25.5 148.972656 25.5 C 148.1875 25.527344 147.402344 25.539062 146.621094 25.589844 C 146.109375 25.625 145.597656 25.703125 145.113281 25.882812 C 144.644531 26.054688 144.433594 26.324219 144.441406 26.8125 C 144.449219 27.285156 144.480469 27.757812 144.535156 28.226562 C 144.597656 28.722656 144.769531 28.890625 145.265625 28.96875 C 146.070312 29.097656 146.871094 29.078125 147.710938 28.855469 Z M 147.710938 28.855469 " />
		<path style=" stroke:none;fill-rule:nonzero;fill:rgb(4.77%,39.91%,55.31%);fill-opacity:1;" d="M 122.773438 28.300781 C 122.855469 28.644531 123.074219 28.832031 123.375 28.90625 C 123.617188 28.96875 123.871094 29.011719 124.121094 29.019531 C 124.753906 29.035156 125.390625 29.03125 126.027344 29.027344 C 126.1875 29.023438 126.347656 28.996094 126.507812 28.972656 C 126.910156 28.917969 127.183594 28.6875 127.269531 28.296875 C 127.355469 27.90625 127.394531 27.503906 127.4375 27.101562 C 127.457031 26.902344 127.453125 26.699219 127.449219 26.496094 C 127.4375 26.023438 127.21875 25.707031 126.757812 25.585938 C 126.410156 25.492188 126.046875 25.445312 125.6875 25.398438 C 124.910156 25.289062 124.128906 25.199219 123.351562 25.089844 C 123.140625 25.0625 122.941406 24.988281 122.738281 24.929688 C 121.894531 24.6875 121.414062 24.097656 121.242188 23.269531 C 121.089844 22.554688 121.085938 21.824219 121.21875 21.101562 C 121.375 20.261719 121.839844 19.679688 122.683594 19.46875 C 123.160156 19.351562 123.652344 19.261719 124.140625 19.230469 C 125.007812 19.179688 125.875 19.175781 126.738281 19.277344 C 127.1875 19.328125 127.609375 19.4375 127.988281 19.691406 C 128.222656 19.847656 128.402344 20.042969 128.515625 20.300781 C 128.695312 20.714844 128.765625 21.148438 128.769531 21.625 C 128.347656 21.757812 127.929688 21.886719 127.46875 22.027344 C 127.441406 21.84375 127.421875 21.675781 127.398438 21.511719 C 127.339844 21.121094 127.179688 20.710938 126.59375 20.628906 C 125.628906 20.5 124.664062 20.488281 123.703125 20.664062 C 123.46875 20.707031 123.261719 20.804688 123.101562 20.988281 C 122.96875 21.140625 122.90625 21.316406 122.90625 21.515625 C 122.902344 21.929688 122.894531 22.34375 122.910156 22.757812 C 122.925781 23.199219 123.089844 23.414062 123.519531 23.5 C 124.144531 23.625 124.773438 23.714844 125.398438 23.820312 C 126.113281 23.941406 126.828125 24.054688 127.542969 24.1875 C 127.851562 24.246094 128.128906 24.382812 128.382812 24.582031 C 128.726562 24.859375 128.949219 25.199219 129.042969 25.636719 C 129.238281 26.554688 129.273438 27.472656 129.109375 28.402344 C 128.941406 29.351562 128.367188 29.925781 127.460938 30.175781 C 127.105469 30.273438 126.730469 30.332031 126.359375 30.355469 C 125.382812 30.410156 124.402344 30.40625 123.425781 30.308594 C 122.96875 30.265625 122.539062 30.121094 122.132812 29.917969 C 121.730469 29.71875 121.511719 29.351562 121.335938 28.960938 C 121.121094 28.480469 121.085938 27.96875 121.101562 27.433594 C 121.597656 27.304688 122.085938 27.175781 122.585938 27.046875 C 122.648438 27.46875 122.707031 27.875 122.773438 28.300781 Z M 122.773438 28.300781 " />
		<path style=" stroke:none;fill-rule:nonzero;fill:rgb(4.77%,39.91%,55.31%);fill-opacity:1;" d="M 154.105469 23.574219 C 154.105469 20.941406 154.105469 18.339844 154.105469 15.703125 C 154.75 15.648438 155.375 15.597656 156.019531 15.542969 C 156.019531 20.449219 156.019531 25.328125 156.019531 30.226562 C 155.390625 30.226562 154.769531 30.226562 154.105469 30.226562 C 154.105469 28.019531 154.105469 25.8125 154.105469 23.574219 Z M 154.105469 23.574219 " />
		<path style=" stroke:none;fill-rule:nonzero;fill:rgb(4.77%,39.91%,55.31%);fill-opacity:1;" d="M 20.714844 10.296875 C 20.898438 10.609375 21.085938 10.898438 21.242188 11.203125 C 21.335938 11.386719 21.414062 11.59375 21.4375 11.796875 C 21.472656 12.117188 21.308594 12.332031 20.996094 12.425781 C 20.871094 12.464844 20.738281 12.484375 20.609375 12.484375 C 18.894531 12.488281 17.179688 12.488281 15.46875 12.484375 C 14.71875 12.480469 14.429688 12.003906 14.757812 11.335938 C 14.816406 11.207031 14.894531 11.089844 14.964844 10.96875 C 15.644531 9.8125 16.320312 8.652344 17.007812 7.503906 C 17.121094 7.316406 17.257812 7.128906 17.421875 6.988281 C 17.800781 6.667969 18.289062 6.671875 18.664062 7 C 18.820312 7.136719 18.953125 7.308594 19.058594 7.488281 C 19.613281 8.414062 20.15625 9.347656 20.714844 10.296875 Z M 20.714844 10.296875 " />
		<path style=" stroke:none;fill-rule:nonzero;fill:rgb(4.77%,39.91%,55.31%);fill-opacity:1;" d="M 116.292969 23.820312 C 116.394531 25.96875 116.339844 28.085938 116.355469 30.222656 C 115.710938 30.222656 115.089844 30.222656 114.449219 30.222656 C 114.449219 26.664062 114.449219 23.105469 114.449219 19.527344 C 115.015625 19.527344 115.585938 19.527344 116.171875 19.527344 C 116.234375 19.886719 116.296875 20.238281 116.355469 20.589844 C 116.664062 20.101562 117.039062 19.703125 117.558594 19.476562 C 118.078125 19.246094 118.621094 19.175781 119.203125 19.273438 C 119.179688 19.816406 119.152344 20.34375 119.128906 20.835938 C 118.609375 20.859375 118.125 20.855469 117.648438 20.910156 C 116.925781 20.996094 116.5 21.378906 116.390625 22.097656 C 116.304688 22.65625 116.320312 23.226562 116.292969 23.820312 Z M 116.292969 23.820312 " />
		<path style=" stroke:none;fill-rule:nonzero;fill:rgb(53.72549%,80.784314%,70.980392%);fill-opacity:1;" d="M 20.847656 17.59375 C 21.445312 16.964844 22.160156 16.675781 23.003906 16.730469 C 24.203125 16.804688 25.242188 17.710938 25.429688 18.925781 C 25.617188 20.132812 25.160156 21.058594 24.132812 21.6875 C 23.171875 22.277344 21.902344 22.121094 21.097656 21.398438 C 20.457031 20.828125 20.136719 20.117188 20.164062 19.257812 C 20.183594 18.742188 20.351562 18.273438 20.648438 17.851562 C 20.707031 17.769531 20.769531 17.691406 20.847656 17.59375 Z M 20.847656 17.59375 " />
		<path style=" stroke:none;fill-rule:nonzero;fill:rgb(53.72549%,80.784314%,70.980392%);fill-opacity:1;" d="M 15.457031 20.859375 C 14.910156 21.644531 14.164062 22.050781 13.242188 22.042969 C 11.902344 22.03125 10.9375 21.117188 10.664062 19.976562 C 10.3125 18.523438 11.269531 17.074219 12.734375 16.777344 C 14.101562 16.5 15.492188 17.339844 15.839844 18.765625 C 16.023438 19.507812 15.878906 20.203125 15.457031 20.859375 Z M 15.457031 20.859375 " />
		<path style=" stroke:none;fill-rule:nonzero;fill:rgb(53.72549%,80.784314%,70.980392%);fill-opacity:1;" d="M 24.96875 28.324219 C 24.894531 27.632812 25.023438 27.011719 25.410156 26.460938 C 25.9375 25.703125 26.671875 25.292969 27.585938 25.289062 C 28.949219 25.285156 29.96875 26.246094 30.214844 27.445312 C 30.464844 28.671875 29.78125 30.019531 28.464844 30.46875 C 26.859375 31.015625 25.261719 29.964844 24.996094 28.4375 C 24.992188 28.410156 24.980469 28.378906 24.96875 28.324219 Z M 24.96875 28.324219 " />
		<path style=" stroke:none;fill-rule:nonzero;fill:rgb(53.72549%,80.784314%,70.980392%);fill-opacity:1;" d="M 16.417969 25.824219 C 18.070312 24.617188 20.324219 25.578125 20.628906 27.535156 C 20.910156 29.335938 19.472656 30.601562 18.035156 30.613281 C 16.8125 30.621094 15.65625 29.769531 15.40625 28.492188 C 15.199219 27.425781 15.535156 26.523438 16.417969 25.824219 Z M 16.417969 25.824219 " />
		<path style=" stroke:none;fill-rule:nonzero;fill:rgb(53.72549%,80.784314%,70.980392%);fill-opacity:1;" d="M 10.402344 26.132812 C 10.898438 26.667969 11.15625 27.289062 11.128906 27.988281 C 11.085938 29.0625 10.589844 29.878906 9.605469 30.34375 C 8.652344 30.796875 7.722656 30.707031 6.875 30.070312 C 5.382812 28.941406 5.472656 26.714844 7.050781 25.707031 C 8.097656 25.035156 9.488281 25.167969 10.402344 26.132812 Z M 10.402344 26.132812 " />
	</g>
</svg>
